<?xml version="1.0" encoding="utf-8"?>
<!-- Generator: Adobe Illustrator 16.0.4, SVG Export Plug-In . SVG Version: 6.00 Build 0)  -->
<!DOCTYPE svg PUBLIC "-//W3C//DTD SVG 1.1//EN" "http://www.w3.org/Graphics/SVG/1.1/DTD/svg11.dtd">
<svg version="1.1" xmlns="http://www.w3.org/2000/svg" xmlns:xlink="http://www.w3.org/1999/xlink" x="0px" y="0px"
	 width="135.472px" height="42.275px" viewBox="0.278 -0.839 135.472 42.275" enable-background="new 0.278 -0.839 135.472 42.275"
	 xml:space="preserve">
<g id="Border">
	<path fill="none" stroke="#FFFFFF" stroke-width="1.5" stroke-miterlimit="10" d="M135,34.819c0,3.617-2.99,5.866-7.057,5.866
		H8.396c-4.069,0-7.368-2.935-7.368-6.553V6.461c0-3.617,3.299-6.55,7.368-6.55h119.548c4.066,0,7.057,2.933,7.057,6.55V34.819z"/>
</g>
<g id="Text">
	<g>
		<g>
			<path fill="#FFFFFF" d="M94.604,29.184l-0.914,0.863c-0.211,0.115-0.422,0.251-0.632,0.348c-0.635,0.288-1.282,0.36-1.856,0.36
				c-0.611,0-1.569-0.04-2.546-0.746c-1.358-0.956-1.952-2.602-1.952-4.033c0-2.967,2.415-4.421,4.384-4.421
				c0.688,0,1.396,0.171,1.971,0.535c0.956,0.632,1.203,1.454,1.34,1.894l-4.498,1.817l-1.472,0.114
				c0.477,2.432,2.122,3.847,3.939,3.847c0.908,0,1.583-0.296,2.201-0.602C94.568,29.16,94.692,29.095,94.604,29.184z
				 M91.891,24.346c0.365-0.133,0.555-0.248,0.555-0.514c0-0.765-0.864-1.646-1.896-1.646c-0.766,0-2.199,0.595-2.199,2.662
				c0,0.322,0.038,0.665,0.058,1.01L91.891,24.346z"/>
			<path fill="#FFFFFF" d="M85.199,29.036c0,0.743,0.133,0.858,0.762,0.916c0.328,0.039,0.655,0.057,0.979,0.095l-0.708,0.421
				h-3.372c0.442-0.573,0.519-0.631,0.519-1.012v-0.429l-0.007-11.374h-1.489l1.433-0.691h2.736
				c-0.593,0.343-0.77,0.553-0.846,1.223L85.199,29.036z"/>
			<path fill="#FFFFFF" d="M79.971,22.494c0.439,0.36,1.355,1.126,1.355,2.58c0,1.416-0.799,2.084-1.604,2.717
				c-0.247,0.249-0.535,0.52-0.535,0.937c0,0.424,0.288,0.652,0.498,0.824l0.69,0.533c0.84,0.709,1.605,1.36,1.605,2.68
				c0,1.802-1.742,3.614-5.032,3.614c-2.772,0-4.113-1.319-4.113-2.735c0-0.688,0.344-1.665,1.475-2.332
				c1.187-0.726,2.793-0.823,3.654-0.88c-0.27-0.347-0.576-0.709-0.576-1.303c0-0.325,0.098-0.518,0.191-0.745
				c-0.209,0.02-0.42,0.039-0.611,0.039c-2.029,0-3.176-1.513-3.176-3.005c0-0.881,0.4-1.855,1.226-2.563
				c1.091-0.898,2.391-1.054,3.425-1.054h3.942l-1.226,0.693H79.971z M78.615,30.986c-0.157-0.021-0.251-0.021-0.44-0.021
				c-0.174,0-1.207,0.037-2.008,0.307c-0.423,0.155-1.647,0.612-1.647,1.971c0,1.356,1.321,2.335,3.366,2.335
				c1.836,0,2.812-0.881,2.812-2.067C80.697,32.536,80.066,32.021,78.615,30.986z M79.165,27.351c0.443-0.44,0.48-1.051,0.48-1.397
				c0-1.376-0.82-3.52-2.41-3.52c-0.496,0-1.034,0.249-1.339,0.634c-0.323,0.399-0.42,0.916-0.42,1.413
				c0,1.282,0.746,3.406,2.39,3.406C78.347,27.887,78.862,27.653,79.165,27.351z"/>
			<path fill="#FFFFFF" d="M68.108,30.715c-3.041,0-4.668-2.368-4.668-4.512c0-2.506,2.045-4.648,4.955-4.648
				c2.812,0,4.575,2.201,4.575,4.514C72.971,28.325,71.229,30.715,68.108,30.715z M70.501,29.168
				c0.463-0.613,0.574-1.377,0.574-2.123c0-1.684-0.803-4.896-3.175-4.896c-0.63,0-1.267,0.245-1.725,0.648
				c-0.747,0.67-0.88,1.51-0.88,2.337c0,1.89,0.934,5.007,3.253,5.007C69.297,30.141,70.061,29.779,70.501,29.168z"/>
			<path fill="#FFFFFF" d="M57.927,30.715c-3.042,0-4.667-2.368-4.667-4.512c0-2.506,2.047-4.648,4.955-4.648
				c2.811,0,4.57,2.201,4.57,4.514C62.786,28.325,61.047,30.715,57.927,30.715z M60.32,29.168c0.459-0.613,0.574-1.377,0.574-2.123
				c0-1.684-0.805-4.896-3.175-4.896c-0.634,0-1.262,0.245-1.722,0.648c-0.749,0.67-0.881,1.51-0.881,2.337
				c0,1.89,0.938,5.007,3.253,5.007C59.116,30.141,59.878,29.779,60.32,29.168z"/>
			<path fill="#FFFFFF" d="M52.044,30.052l-2.565,0.587c-1.04,0.164-1.972,0.308-2.96,0.308c-4.948,0-6.833-3.642-6.833-6.49
				c0-3.482,2.671-6.709,7.245-6.709c0.968,0,1.899,0.143,2.747,0.373c1.344,0.378,1.973,0.844,2.366,1.116l-1.49,1.415
				l-0.628,0.142l0.448-0.715c-0.606-0.593-1.722-1.686-3.838-1.686c-2.83,0-4.964,2.151-4.964,5.292
				c0,3.373,2.438,6.545,6.347,6.545c1.149,0,1.74-0.229,2.277-0.445v-2.892l-2.708,0.146l1.436-0.772h3.801l-0.465,0.447
				c-0.125,0.108-0.143,0.144-0.178,0.286c-0.019,0.164-0.036,0.684-0.036,0.865V30.052z"/>
		</g>
		<g>
			<path fill="#FFFFFF" d="M100.119,29.265v4.873h-0.968V21.738h0.968v1.412c0.63-0.913,1.782-1.637,3.12-1.637
				c2.4,0,4.017,1.82,4.017,4.702c0,2.863-1.616,4.722-4.017,4.722C101.977,30.938,100.845,30.286,100.119,29.265z M106.216,26.216
				c0-2.171-1.132-3.828-3.14-3.828c-1.247,0-2.438,0.98-2.957,1.834v3.97c0.519,0.856,1.71,1.872,2.957,1.872
				C105.084,30.063,106.216,28.393,106.216,26.216z"/>
			<path fill="#FFFFFF" d="M108.577,30.715v-12.4h0.968v12.4H108.577z"/>
			<path fill="#FFFFFF" d="M120.404,33.337c0.207,0.092,0.56,0.149,0.784,0.149c0.593,0,1.005-0.243,1.375-1.098l0.706-1.599
				l-3.812-9.052h1.079l3.271,7.843l3.238-7.843h1.095l-4.649,10.95c-0.482,1.129-1.241,1.671-2.285,1.671
				c-0.312,0-0.726-0.057-0.967-0.13L120.404,33.337z"/>
			<path fill="#FFFFFF" d="M117.578,30.688c-0.065-0.311-0.114-0.585-0.149-0.814c-0.03-0.229-0.047-0.462-0.047-0.7
				c-0.332,0.487-0.802,0.893-1.402,1.213s-1.171,0.479-1.955,0.479c-0.942,0-1.674-0.232-2.196-0.703
				c-0.521-0.47-0.782-1.106-0.782-1.912c0-0.805,0.379-1.458,1.136-1.958c0.756-0.501,1.733-0.75,2.943-0.75h2.257v-1.115
				c0-0.643-0.219-1.147-0.655-1.514c-0.439-0.367-1.055-0.553-1.854-0.553c-0.729,0-1.321,0.17-1.772,0.499
				c-0.446,0.337-0.672,0.754-0.672,1.258h-0.99l-0.021-0.048c-0.036-0.678,0.274-1.274,0.935-1.787
				c0.656-0.514,1.517-0.771,2.575-0.771c1.055,0,1.907,0.254,2.552,0.76c0.643,0.501,0.966,1.227,0.966,2.175v4.429
				c0,0.317,0.015,0.626,0.055,0.925c0.042,0.3,0.106,0.599,0.193,0.889H117.578z M114.144,29.982c0.822,0,1.413-0.184,2.017-0.547
				c0.6-0.361,1.008-0.833,1.222-1.403V26.31h-2.268c-0.866,0-1.583,0.19-2.147,0.578c-0.565,0.385-0.853,0.852-0.853,1.396
				c0,0.511,0.182,0.921,0.543,1.23C113.02,29.828,113.514,29.982,114.144,29.982z"/>
		</g>
	</g>
	<g>
		<g>
			<path fill="#FFFFFF" d="M45.072,11.164l-0.445-1.17H41.85l-0.445,1.17h-1.207l2.377-6.053h1.325l2.378,6.053H45.072z
				 M43.239,6.173L42.15,9.059h2.178L43.239,6.173z"/>
			<path fill="#FFFFFF" d="M51.376,11.164l-3.158-4.329v4.329h-1.062V5.111h1.089l3.094,4.193V5.111h1.062v6.053H51.376z"/>
			<path fill="#FFFFFF" d="M53.915,11.164V5.111h2.25c1.896,0,3.167,1.252,3.167,3.022c0,1.787-1.271,3.031-3.158,3.031H53.915z
				 M58.243,8.133c0-1.162-0.726-2.087-2.069-2.087h-1.198v4.184h1.189C57.48,10.229,58.243,9.286,58.243,8.133z"/>
			<path fill="#FFFFFF" d="M64.04,11.164l-1.334-2.26h-1.062v2.26h-1.062V5.111h2.659c1.198,0,1.988,0.772,1.988,1.897
				c0,1.071-0.708,1.661-1.443,1.779l1.488,2.377H64.04z M64.14,6.999c0-0.581-0.436-0.953-1.035-0.953h-1.46V7.97h1.46
				C63.704,7.97,64.14,7.588,64.14,6.999z"/>
			<path fill="#FFFFFF" d="M66.251,8.142c0-1.806,1.279-3.131,3.096-3.131c1.805,0,3.095,1.325,3.095,3.131s-1.29,3.131-3.095,3.131
				C67.53,11.273,66.251,9.948,66.251,8.142z M71.352,8.142c0-1.252-0.79-2.187-2.005-2.187c-1.226,0-2.006,0.935-2.006,2.187
				c0,1.243,0.78,2.188,2.006,2.188C70.562,10.33,71.352,9.385,71.352,8.142z"/>
			<path fill="#FFFFFF" d="M73.682,11.164V5.111h1.062v6.053H73.682z"/>
			<path fill="#FFFFFF" d="M76.258,11.164V5.111h2.251c1.896,0,3.167,1.252,3.167,3.022c0,1.787-1.271,3.031-3.158,3.031H76.258z
				 M80.587,8.133c0-1.162-0.726-2.087-2.069-2.087h-1.198v4.184h1.189C79.824,10.229,80.587,9.286,80.587,8.133z"/>
			<path fill="#FFFFFF" d="M89.74,11.164l-0.444-1.17h-2.777l-0.445,1.17h-1.207l2.378-6.053h1.325l2.377,6.053H89.74z
				 M87.906,6.173l-1.089,2.886h2.179L87.906,6.173z"/>
			<path fill="#FFFFFF" d="M91.823,11.164V5.111h2.669c1.27,0,1.969,0.863,1.969,1.897c0,1.025-0.708,1.887-1.969,1.887h-1.607
				v2.269H91.823z M95.372,7.008c0-0.581-0.427-0.962-1.025-0.962h-1.462V7.96h1.462C94.945,7.96,95.372,7.58,95.372,7.008z"/>
			<path fill="#FFFFFF" d="M97.575,11.164V5.111h2.668c1.271,0,1.97,0.863,1.97,1.897c0,1.025-0.708,1.887-1.97,1.887h-1.605v2.269
				H97.575z M101.123,7.008c0-0.581-0.426-0.962-1.024-0.962h-1.461V7.96h1.461C100.697,7.96,101.123,7.58,101.123,7.008z"/>
			<path fill="#FFFFFF" d="M105.63,8.142c0-1.806,1.28-3.131,3.096-3.131c1.806,0,3.094,1.325,3.094,3.131s-1.288,3.131-3.094,3.131
				C106.91,11.273,105.63,9.948,105.63,8.142z M110.731,8.142c0-1.252-0.79-2.187-2.006-2.187c-1.226,0-2.007,0.935-2.007,2.187
				c0,1.243,0.781,2.188,2.007,2.188C109.941,10.33,110.731,9.385,110.731,8.142z"/>
			<path fill="#FFFFFF" d="M117.28,11.164l-3.158-4.329v4.329h-1.062V5.111h1.089l3.096,4.193V5.111h1.061v6.053H117.28z"/>
		</g>
	</g>
</g>
<g id="Icon">
	<g>
		<path fill="#FFFFFF" d="M12.901,8.439c-0.068,0.108-0.109,0.253-0.109,0.431v11.427v11.659c0,0.1,0.016,0.188,0.046,0.264
			l12.023-11.923L12.901,8.439z"/>
		<path fill="#FFFFFF" d="M25.396,19.767l3.047-3.021l-4.749-2.742c0,0-9.27-5.353-9.814-5.667c-0.009-0.005-0.017-0.01-0.025-0.014
			L25.396,19.767z"/>
		<path fill="#FFFFFF" d="M25.396,20.829L13.854,32.273c1.469-0.848,9.84-5.682,9.84-5.682l4.749-2.741L25.396,20.829z"/>
		<path fill="#FFFFFF" d="M33.707,19.785c-0.403-0.218-3.543-2.041-4.589-2.647l-3.187,3.161l3.188,3.161
			c1.028-0.594,4.077-2.353,4.552-2.628C34.246,20.5,34.19,20.045,33.707,19.785"/>
	</g>
</g>
</svg>
